<?xml version="1.0" encoding="UTF-8" standalone="no"?>
<!-- Created with Inkscape (http://www.inkscape.org/) -->

<svg
   xmlns:dc="http://purl.org/dc/elements/1.1/"
   xmlns:cc="http://creativecommons.org/ns#"
   xmlns:rdf="http://www.w3.org/1999/02/22-rdf-syntax-ns#"
   xmlns:svg="http://www.w3.org/2000/svg"
   xmlns="http://www.w3.org/2000/svg"
   xmlns:sodipodi="http://sodipodi.sourceforge.net/DTD/sodipodi-0.dtd"
   xmlns:inkscape="http://www.inkscape.org/namespaces/inkscape"
   width="4663"
   height="1173.8572"
   id="svg2"
   version="1.1"
   inkscape:version="0.48.4 r9939"
   sodipodi:docname="number-layout.svg">
  <defs
     id="defs4" />
  <sodipodi:namedview
     id="base"
     pagecolor="#ffffff"
     bordercolor="#666666"
     borderopacity="1.0"
     inkscape:pageopacity="0.0"
     inkscape:pageshadow="2"
     inkscape:zoom="0.35"
     inkscape:cx="2065.7857"
     inkscape:cy="471.21429"
     inkscape:document-units="px"
     inkscape:current-layer="layer1"
     showgrid="false"
     showborder="false"
     inkscape:showpageshadow="false"
     inkscape:snap-bbox="true"
     inkscape:bbox-paths="true"
     inkscape:bbox-nodes="true"
     inkscape:snap-bbox-edge-midpoints="true"
     inkscape:snap-bbox-midpoints="true"
     inkscape:object-nodes="true"
     inkscape:snap-smooth-nodes="true"
     inkscape:object-paths="true"
     inkscape:snap-intersection-paths="true"
     inkscape:snap-midpoints="true"
     inkscape:snap-object-midpoints="true"
     inkscape:snap-center="true"
     inkscape:window-width="2556"
     inkscape:window-height="1401"
     inkscape:window-x="0"
     inkscape:window-y="175"
     inkscape:window-maximized="0"
     fit-margin-top="0"
     fit-margin-left="0"
     fit-margin-right="0"
     fit-margin-bottom="0" />
  <metadata
     id="metadata7">
    <rdf:RDF>
      <cc:Work
         rdf:about="">
        <dc:format>image/svg+xml</dc:format>
        <dc:type
           rdf:resource="http://purl.org/dc/dcmitype/StillImage" />
        <dc:title></dc:title>
      </cc:Work>
    </rdf:RDF>
  </metadata>
  <g
     inkscape:label="Layer 1"
     inkscape:groupmode="layer"
     id="layer1"
     transform="translate(1313.6429,130.28068)">
    <path
       sodipodi:type="arc"
       style="fill:#000000;fill-opacity:0;stroke:#000000;stroke-width:3;stroke-miterlimit:4;stroke-opacity:1;stroke-dasharray:none"
       id="path3850"
       sodipodi:cx="-1224.2858"
       sodipodi:cy="-51.923531"
       sodipodi:rx="44.285713"
       sodipodi:ry="44.285713"
       d="m -1180.0001,-51.923531 c 0,24.458324 -19.8273,44.2857136 -44.2857,44.2857136 -24.4583,0 -44.2857,-19.8273896 -44.2857,-44.2857136 0,-24.458324 19.8274,-44.285713 44.2857,-44.285713 24.4584,0 44.2857,19.827389 44.2857,44.285713 z"
       transform="translate(-43.571402,-32.57143)" />
    <path
       transform="translate(211.00002,-32.57143)"
       sodipodi:type="arc"
       style="fill:#000000;fill-opacity:0;stroke:#000000;stroke-width:3;stroke-miterlimit:4;stroke-opacity:1;stroke-dasharray:none"
       id="path3850-6"
       sodipodi:cx="-1224.2858"
       sodipodi:cy="-51.923531"
       sodipodi:rx="44.285713"
       sodipodi:ry="44.285713"
       d="m -1180.0001,-51.923531 c 0,24.458324 -19.8273,44.2857136 -44.2857,44.2857136 -24.4583,0 -44.2857,-19.8273896 -44.2857,-44.2857136 0,-24.458324 19.8274,-44.285713 44.2857,-44.285713 24.4584,0 44.2857,19.827389 44.2857,44.285713 z" />
    <path
       transform="translate(864.8572,-32.57143)"
       sodipodi:type="arc"
       style="fill:#000000;fill-opacity:0;stroke:#000000;stroke-width:3;stroke-miterlimit:4;stroke-opacity:1;stroke-dasharray:none"
       id="path3850-0"
       sodipodi:cx="-1224.2858"
       sodipodi:cy="-51.923531"
       sodipodi:rx="44.285713"
       sodipodi:ry="44.285713"
       d="m -1180.0001,-51.923531 c 0,24.458324 -19.8273,44.2857136 -44.2857,44.2857136 -24.4583,0 -44.2857,-19.8273896 -44.2857,-44.2857136 0,-24.458324 19.8274,-44.285713 44.2857,-44.285713 24.4584,0 44.2857,19.827389 44.2857,44.285713 z" />
    <path
       transform="translate(864.8572,174.85711)"
       sodipodi:type="arc"
       style="fill:#000000;fill-opacity:0;stroke:#000000;stroke-width:3;stroke-miterlimit:4;stroke-opacity:1;stroke-dasharray:none"
       id="path3850-62"
       sodipodi:cx="-1224.2858"
       sodipodi:cy="-51.923531"
       sodipodi:rx="44.285713"
       sodipodi:ry="44.285713"
       d="m -1180.0001,-51.923531 c 0,24.458324 -19.8273,44.2857136 -44.2857,44.2857136 -24.4583,0 -44.2857,-19.8273896 -44.2857,-44.2857136 0,-24.458324 19.8274,-44.285713 44.2857,-44.285713 24.4584,0 44.2857,19.827389 44.2857,44.285713 z" />
    <path
       transform="translate(864.8572,602.28571)"
       sodipodi:type="arc"
       style="fill:#000000;fill-opacity:0;stroke:#000000;stroke-width:3;stroke-miterlimit:4;stroke-opacity:1;stroke-dasharray:none"
       id="path3850-2"
       sodipodi:cx="-1224.2858"
       sodipodi:cy="-51.923531"
       sodipodi:rx="44.285713"
       sodipodi:ry="44.285713"
       d="m -1180.0001,-51.923531 c 0,24.458324 -19.8273,44.2857136 -44.2857,44.2857136 -24.4583,0 -44.2857,-19.8273896 -44.2857,-44.2857136 0,-24.458324 19.8274,-44.285713 44.2857,-44.285713 24.4584,0 44.2857,19.827389 44.2857,44.285713 z" />
    <path
       transform="translate(864.8572,821.14283)"
       sodipodi:type="arc"
       style="fill:#000000;fill-opacity:0;stroke:#000000;stroke-width:3;stroke-miterlimit:4;stroke-opacity:1;stroke-dasharray:none"
       id="path3850-9"
       sodipodi:cx="-1224.2858"
       sodipodi:cy="-51.923531"
       sodipodi:rx="44.285713"
       sodipodi:ry="44.285713"
       d="m -1180.0001,-51.923531 c 0,24.458324 -19.8273,44.2857136 -44.2857,44.2857136 -24.4583,0 -44.2857,-19.8273896 -44.2857,-44.2857136 0,-24.458324 19.8274,-44.285713 44.2857,-44.285713 24.4584,0 44.2857,19.827389 44.2857,44.285713 z" />
    <path
       transform="translate(864.8572,1048.5714)"
       sodipodi:type="arc"
       style="fill:#000000;fill-opacity:0;stroke:#000000;stroke-width:3;stroke-miterlimit:4;stroke-opacity:1;stroke-dasharray:none"
       id="path3850-4"
       sodipodi:cx="-1224.2858"
       sodipodi:cy="-51.923531"
       sodipodi:rx="44.285713"
       sodipodi:ry="44.285713"
       d="m -1180.0001,-51.923531 c 0,24.458324 -19.8273,44.2857136 -44.2857,44.2857136 -24.4583,0 -44.2857,-19.8273896 -44.2857,-44.2857136 0,-24.458324 19.8274,-44.285713 44.2857,-44.285713 24.4584,0 44.2857,19.827389 44.2857,44.285713 z" />
    <path
       transform="translate(-43.571403,602.28571)"
       sodipodi:type="arc"
       style="fill:#000000;fill-opacity:0;stroke:#000000;stroke-width:3;stroke-miterlimit:4;stroke-opacity:1;stroke-dasharray:none"
       id="path3850-90"
       sodipodi:cx="-1224.2858"
       sodipodi:cy="-51.923531"
       sodipodi:rx="44.285713"
       sodipodi:ry="44.285713"
       d="m -1180.0001,-51.923531 c 0,24.458324 -19.8273,44.2857136 -44.2857,44.2857136 -24.4583,0 -44.2857,-19.8273896 -44.2857,-44.2857136 0,-24.458324 19.8274,-44.285713 44.2857,-44.285713 24.4584,0 44.2857,19.827389 44.2857,44.285713 z" />
    <path
       transform="translate(-43.571402,174.85711)"
       sodipodi:type="arc"
       style="fill:#000000;fill-opacity:0;stroke:#000000;stroke-width:3;stroke-miterlimit:4;stroke-opacity:1;stroke-dasharray:none"
       id="path3850-8"
       sodipodi:cx="-1224.2858"
       sodipodi:cy="-51.923531"
       sodipodi:rx="44.285713"
       sodipodi:ry="44.285713"
       d="m -1180.0001,-51.923531 c 0,24.458324 -19.8273,44.2857136 -44.2857,44.2857136 -24.4583,0 -44.2857,-19.8273896 -44.2857,-44.2857136 0,-24.458324 19.8274,-44.285713 44.2857,-44.285713 24.4584,0 44.2857,19.827389 44.2857,44.285713 z" />
    <path
       transform="translate(-43.571402,818.28571)"
       sodipodi:type="arc"
       style="fill:#000000;fill-opacity:0;stroke:#000000;stroke-width:3;stroke-miterlimit:4;stroke-opacity:1;stroke-dasharray:none"
       id="path3850-5"
       sodipodi:cx="-1224.2858"
       sodipodi:cy="-51.923531"
       sodipodi:rx="44.285713"
       sodipodi:ry="44.285713"
       d="m -1180.0001,-51.923531 c 0,24.458324 -19.8273,44.2857136 -44.2857,44.2857136 -24.4583,0 -44.2857,-19.8273896 -44.2857,-44.2857136 0,-24.458324 19.8274,-44.285713 44.2857,-44.285713 24.4584,0 44.2857,19.827389 44.2857,44.285713 z" />
    <path
       transform="translate(-43.571403,1048.5714)"
       sodipodi:type="arc"
       style="fill:#000000;fill-opacity:0;stroke:#000000;stroke-width:3;stroke-miterlimit:4;stroke-opacity:1;stroke-dasharray:none"
       id="path3850-54"
       sodipodi:cx="-1224.2858"
       sodipodi:cy="-51.923531"
       sodipodi:rx="44.285713"
       sodipodi:ry="44.285713"
       d="m -1180.0001,-51.923531 c 0,24.458324 -19.8273,44.2857136 -44.2857,44.2857136 -24.4583,0 -44.2857,-19.8273896 -44.2857,-44.2857136 0,-24.458324 19.8274,-44.285713 44.2857,-44.285713 24.4584,0 44.2857,19.827389 44.2857,44.285713 z" />
    <path
       transform="translate(196.00005,494.28571)"
       sodipodi:type="arc"
       style="fill:#000000;fill-opacity:0;stroke:#000000;stroke-width:3;stroke-miterlimit:4;stroke-opacity:1;stroke-dasharray:none"
       id="path3850-547"
       sodipodi:cx="-1224.2858"
       sodipodi:cy="-51.923531"
       sodipodi:rx="44.285713"
       sodipodi:ry="44.285713"
       d="m -1180.0001,-51.923531 c 0,24.458324 -19.8273,44.2857136 -44.2857,44.2857136 -24.4583,0 -44.2857,-19.8273896 -44.2857,-44.2857136 0,-24.458324 19.8274,-44.285713 44.2857,-44.285713 24.4584,0 44.2857,19.827389 44.2857,44.285713 z" />
    <path
       transform="translate(218.8572,1048.5714)"
       sodipodi:type="arc"
       style="fill:#000000;fill-opacity:0;stroke:#000000;stroke-width:3;stroke-miterlimit:4;stroke-opacity:1;stroke-dasharray:none"
       id="path3850-7"
       sodipodi:cx="-1224.2858"
       sodipodi:cy="-51.923531"
       sodipodi:rx="44.285713"
       sodipodi:ry="44.285713"
       d="m -1180.0001,-51.923531 c 0,24.458324 -19.8273,44.2857136 -44.2857,44.2857136 -24.4583,0 -44.2857,-19.8273896 -44.2857,-44.2857136 0,-24.458324 19.8274,-44.285713 44.2857,-44.285713 24.4584,0 44.2857,19.827389 44.2857,44.285713 z" />
    <path
       transform="translate(428.99995,-32.57142)"
       sodipodi:type="arc"
       style="fill:#000000;fill-opacity:0;stroke:#000000;stroke-width:3;stroke-miterlimit:4;stroke-opacity:1;stroke-dasharray:none"
       id="path3850-6-1"
       sodipodi:cx="-1224.2858"
       sodipodi:cy="-51.923531"
       sodipodi:rx="44.285713"
       sodipodi:ry="44.285713"
       d="m -1180.0001,-51.923531 c 0,24.458324 -19.8273,44.2857136 -44.2857,44.2857136 -24.4583,0 -44.2857,-19.8273896 -44.2857,-44.2857136 0,-24.458324 19.8274,-44.285713 44.2857,-44.285713 24.4584,0 44.2857,19.827389 44.2857,44.285713 z" />
    <path
       transform="translate(414.00005,494.28571)"
       sodipodi:type="arc"
       style="fill:#000000;fill-opacity:0;stroke:#000000;stroke-width:3;stroke-miterlimit:4;stroke-opacity:1;stroke-dasharray:none"
       id="path3850-547-7"
       sodipodi:cx="-1224.2858"
       sodipodi:cy="-51.923531"
       sodipodi:rx="44.285713"
       sodipodi:ry="44.285713"
       d="m -1180.0001,-51.923531 c 0,24.458324 -19.8273,44.2857136 -44.2857,44.2857136 -24.4583,0 -44.2857,-19.8273896 -44.2857,-44.2857136 0,-24.458324 19.8274,-44.285713 44.2857,-44.285713 24.4584,0 44.2857,19.827389 44.2857,44.285713 z" />
    <path
       transform="translate(436.85715,1048.5714)"
       sodipodi:type="arc"
       style="fill:#000000;fill-opacity:0;stroke:#000000;stroke-width:3;stroke-miterlimit:4;stroke-opacity:1;stroke-dasharray:none"
       id="path3850-7-4"
       sodipodi:cx="-1224.2858"
       sodipodi:cy="-51.923531"
       sodipodi:rx="44.285713"
       sodipodi:ry="44.285713"
       d="m -1180.0001,-51.923531 c 0,24.458324 -19.8273,44.2857136 -44.2857,44.2857136 -24.4583,0 -44.2857,-19.8273896 -44.2857,-44.2857136 0,-24.458324 19.8274,-44.285713 44.2857,-44.285713 24.4584,0 44.2857,19.827389 44.2857,44.285713 z" />
    <path
       transform="translate(650.14283,-31.428572)"
       sodipodi:type="arc"
       style="fill:#000000;fill-opacity:0;stroke:#000000;stroke-width:3;stroke-miterlimit:4;stroke-opacity:1;stroke-dasharray:none"
       id="path3850-6-7"
       sodipodi:cx="-1224.2858"
       sodipodi:cy="-51.923531"
       sodipodi:rx="44.285713"
       sodipodi:ry="44.285713"
       d="m -1180.0001,-51.923531 c 0,24.458324 -19.8273,44.2857136 -44.2857,44.2857136 -24.4583,0 -44.2857,-19.8273896 -44.2857,-44.2857136 0,-24.458324 19.8274,-44.285713 44.2857,-44.285713 24.4584,0 44.2857,19.827389 44.2857,44.285713 z" />
    <path
       transform="translate(635.14293,495.42856)"
       sodipodi:type="arc"
       style="fill:#000000;fill-opacity:0;stroke:#000000;stroke-width:3;stroke-miterlimit:4;stroke-opacity:1;stroke-dasharray:none"
       id="path3850-547-3"
       sodipodi:cx="-1224.2858"
       sodipodi:cy="-51.923531"
       sodipodi:rx="44.285713"
       sodipodi:ry="44.285713"
       d="m -1180.0001,-51.923531 c 0,24.458324 -19.8273,44.2857136 -44.2857,44.2857136 -24.4583,0 -44.2857,-19.8273896 -44.2857,-44.2857136 0,-24.458324 19.8274,-44.285713 44.2857,-44.285713 24.4584,0 44.2857,19.827389 44.2857,44.285713 z" />
    <path
       transform="translate(658.00003,1049.7143)"
       sodipodi:type="arc"
       style="fill:#000000;fill-opacity:0;stroke:#000000;stroke-width:3;stroke-miterlimit:4;stroke-opacity:1;stroke-dasharray:none"
       id="path3850-7-1"
       sodipodi:cx="-1224.2858"
       sodipodi:cy="-51.923531"
       sodipodi:rx="44.285713"
       sodipodi:ry="44.285713"
       d="m -1180.0001,-51.923531 c 0,24.458324 -19.8273,44.2857136 -44.2857,44.2857136 -24.4583,0 -44.2857,-19.8273896 -44.2857,-44.2857136 0,-24.458324 19.8274,-44.285713 44.2857,-44.285713 24.4584,0 44.2857,19.827389 44.2857,44.285713 z" />
    <path
       transform="translate(2244.0001,243)"
       sodipodi:type="arc"
       style="fill:#000000;fill-opacity:0;stroke:#000000;stroke-width:3;stroke-miterlimit:4;stroke-opacity:1;stroke-dasharray:none"
       id="path3850-62-7-0"
       sodipodi:cx="-1224.2858"
       sodipodi:cy="-51.923531"
       sodipodi:rx="44.285713"
       sodipodi:ry="44.285713"
       d="m -1180.0001,-51.923531 c 0,24.458324 -19.8273,44.2857136 -44.2857,44.2857136 -24.4583,0 -44.2857,-19.8273896 -44.2857,-44.2857136 0,-24.458324 19.8274,-44.285713 44.2857,-44.285713 24.4584,0 44.2857,19.827389 44.2857,44.285713 z" />
    <path
       transform="translate(2244.0001,747.28571)"
       sodipodi:type="arc"
       style="fill:#000000;fill-opacity:0;stroke:#000000;stroke-width:3;stroke-miterlimit:4;stroke-opacity:1;stroke-dasharray:none"
       id="path3850-9-1-6"
       sodipodi:cx="-1224.2858"
       sodipodi:cy="-51.923531"
       sodipodi:rx="44.285713"
       sodipodi:ry="44.285713"
       d="m -1180.0001,-51.923531 c 0,24.458324 -19.8273,44.2857136 -44.2857,44.2857136 -24.4583,0 -44.2857,-19.8273896 -44.2857,-44.2857136 0,-24.458324 19.8274,-44.285713 44.2857,-44.285713 24.4584,0 44.2857,19.827389 44.2857,44.285713 z" />
    <path
       transform="translate(864.8572,368.64282)"
       sodipodi:type="arc"
       style="fill:#000000;fill-opacity:0;stroke:#000000;stroke-width:3;stroke-miterlimit:4;stroke-opacity:1;stroke-dasharray:none"
       id="path3850-62-0"
       sodipodi:cx="-1224.2858"
       sodipodi:cy="-51.923531"
       sodipodi:rx="44.285713"
       sodipodi:ry="44.285713"
       d="m -1180.0001,-51.923531 c 0,24.458324 -19.8273,44.2857136 -44.2857,44.2857136 -24.4583,0 -44.2857,-19.8273896 -44.2857,-44.2857136 0,-24.458324 19.8274,-44.285713 44.2857,-44.285713 24.4584,0 44.2857,19.827389 44.2857,44.285713 z" />
    <path
       transform="translate(-43.57137,368.64282)"
       sodipodi:type="arc"
       style="fill:#000000;fill-opacity:0;stroke:#000000;stroke-width:3;stroke-miterlimit:4;stroke-opacity:1;stroke-dasharray:none"
       id="path3850-8-2"
       sodipodi:cx="-1224.2858"
       sodipodi:cy="-51.923531"
       sodipodi:rx="44.285713"
       sodipodi:ry="44.285713"
       d="m -1180.0001,-51.923531 c 0,24.458324 -19.8273,44.2857136 -44.2857,44.2857136 -24.4583,0 -44.2857,-19.8273896 -44.2857,-44.2857136 0,-24.458324 19.8274,-44.285713 44.2857,-44.285713 24.4584,0 44.2857,19.827389 44.2857,44.285713 z" />
    <path
       sodipodi:type="arc"
       style="fill:#000000;fill-opacity:0;stroke:#000000;stroke-width:3;stroke-miterlimit:4;stroke-opacity:1;stroke-dasharray:none"
       id="path3850-07"
       sodipodi:cx="-1224.2858"
       sodipodi:cy="-51.923531"
       sodipodi:rx="44.285713"
       sodipodi:ry="44.285713"
       d="m -1180.0001,-51.923531 c 0,24.458324 -19.8273,44.2857136 -44.2857,44.2857136 -24.4583,0 -44.2857,-19.8273896 -44.2857,-44.2857136 0,-24.458324 19.8274,-44.285713 44.2857,-44.285713 24.4584,0 44.2857,19.827389 44.2857,44.285713 z"
       transform="translate(1082.4286,-32.57144)" />
    <path
       transform="translate(1337,-32.57144)"
       sodipodi:type="arc"
       style="fill:#000000;fill-opacity:0;stroke:#000000;stroke-width:3;stroke-miterlimit:4;stroke-opacity:1;stroke-dasharray:none"
       id="path3850-6-6"
       sodipodi:cx="-1224.2858"
       sodipodi:cy="-51.923531"
       sodipodi:rx="44.285713"
       sodipodi:ry="44.285713"
       d="m -1180.0001,-51.923531 c 0,24.458324 -19.8273,44.2857136 -44.2857,44.2857136 -24.4583,0 -44.2857,-19.8273896 -44.2857,-44.2857136 0,-24.458324 19.8274,-44.285713 44.2857,-44.285713 24.4584,0 44.2857,19.827389 44.2857,44.285713 z" />
    <path
       transform="translate(1990.8572,-32.57144)"
       sodipodi:type="arc"
       style="fill:#000000;fill-opacity:0;stroke:#000000;stroke-width:3;stroke-miterlimit:4;stroke-opacity:1;stroke-dasharray:none"
       id="path3850-0-7"
       sodipodi:cx="-1224.2858"
       sodipodi:cy="-51.923531"
       sodipodi:rx="44.285713"
       sodipodi:ry="44.285713"
       d="m -1180.0001,-51.923531 c 0,24.458324 -19.8273,44.2857136 -44.2857,44.2857136 -24.4583,0 -44.2857,-19.8273896 -44.2857,-44.2857136 0,-24.458324 19.8274,-44.285713 44.2857,-44.285713 24.4584,0 44.2857,19.827389 44.2857,44.285713 z" />
    <path
       transform="translate(1990.8572,174.85711)"
       sodipodi:type="arc"
       style="fill:#000000;fill-opacity:0;stroke:#000000;stroke-width:3;stroke-miterlimit:4;stroke-opacity:1;stroke-dasharray:none"
       id="path3850-62-1"
       sodipodi:cx="-1224.2858"
       sodipodi:cy="-51.923531"
       sodipodi:rx="44.285713"
       sodipodi:ry="44.285713"
       d="m -1180.0001,-51.923531 c 0,24.458324 -19.8273,44.2857136 -44.2857,44.2857136 -24.4583,0 -44.2857,-19.8273896 -44.2857,-44.2857136 0,-24.458324 19.8274,-44.285713 44.2857,-44.285713 24.4584,0 44.2857,19.827389 44.2857,44.285713 z" />
    <path
       transform="translate(1990.8572,602.28571)"
       sodipodi:type="arc"
       style="fill:#000000;fill-opacity:0;stroke:#000000;stroke-width:3;stroke-miterlimit:4;stroke-opacity:1;stroke-dasharray:none"
       id="path3850-2-8"
       sodipodi:cx="-1224.2858"
       sodipodi:cy="-51.923531"
       sodipodi:rx="44.285713"
       sodipodi:ry="44.285713"
       d="m -1180.0001,-51.923531 c 0,24.458324 -19.8273,44.2857136 -44.2857,44.2857136 -24.4583,0 -44.2857,-19.8273896 -44.2857,-44.2857136 0,-24.458324 19.8274,-44.285713 44.2857,-44.285713 24.4584,0 44.2857,19.827389 44.2857,44.285713 z" />
    <path
       transform="translate(1990.8572,821.14283)"
       sodipodi:type="arc"
       style="fill:#000000;fill-opacity:0;stroke:#000000;stroke-width:3;stroke-miterlimit:4;stroke-opacity:1;stroke-dasharray:none"
       id="path3850-9-6"
       sodipodi:cx="-1224.2858"
       sodipodi:cy="-51.923531"
       sodipodi:rx="44.285713"
       sodipodi:ry="44.285713"
       d="m -1180.0001,-51.923531 c 0,24.458324 -19.8273,44.2857136 -44.2857,44.2857136 -24.4583,0 -44.2857,-19.8273896 -44.2857,-44.2857136 0,-24.458324 19.8274,-44.285713 44.2857,-44.285713 24.4584,0 44.2857,19.827389 44.2857,44.285713 z" />
    <path
       transform="translate(1990.8572,1048.5714)"
       sodipodi:type="arc"
       style="fill:#000000;fill-opacity:0;stroke:#000000;stroke-width:3;stroke-miterlimit:4;stroke-opacity:1;stroke-dasharray:none"
       id="path3850-4-5"
       sodipodi:cx="-1224.2858"
       sodipodi:cy="-51.923531"
       sodipodi:rx="44.285713"
       sodipodi:ry="44.285713"
       d="m -1180.0001,-51.923531 c 0,24.458324 -19.8273,44.2857136 -44.2857,44.2857136 -24.4583,0 -44.2857,-19.8273896 -44.2857,-44.2857136 0,-24.458324 19.8274,-44.285713 44.2857,-44.285713 24.4584,0 44.2857,19.827389 44.2857,44.285713 z" />
    <path
       transform="translate(1082.4286,602.28571)"
       sodipodi:type="arc"
       style="fill:#000000;fill-opacity:0;stroke:#000000;stroke-width:3;stroke-miterlimit:4;stroke-opacity:1;stroke-dasharray:none"
       id="path3850-90-7"
       sodipodi:cx="-1224.2858"
       sodipodi:cy="-51.923531"
       sodipodi:rx="44.285713"
       sodipodi:ry="44.285713"
       d="m -1180.0001,-51.923531 c 0,24.458324 -19.8273,44.2857136 -44.2857,44.2857136 -24.4583,0 -44.2857,-19.8273896 -44.2857,-44.2857136 0,-24.458324 19.8274,-44.285713 44.2857,-44.285713 24.4584,0 44.2857,19.827389 44.2857,44.285713 z" />
    <path
       transform="translate(1082.4286,174.85711)"
       sodipodi:type="arc"
       style="fill:#000000;fill-opacity:0;stroke:#000000;stroke-width:3;stroke-miterlimit:4;stroke-opacity:1;stroke-dasharray:none"
       id="path3850-8-5"
       sodipodi:cx="-1224.2858"
       sodipodi:cy="-51.923531"
       sodipodi:rx="44.285713"
       sodipodi:ry="44.285713"
       d="m -1180.0001,-51.923531 c 0,24.458324 -19.8273,44.2857136 -44.2857,44.2857136 -24.4583,0 -44.2857,-19.8273896 -44.2857,-44.2857136 0,-24.458324 19.8274,-44.285713 44.2857,-44.285713 24.4584,0 44.2857,19.827389 44.2857,44.285713 z" />
    <path
       transform="translate(1082.4286,818.28571)"
       sodipodi:type="arc"
       style="fill:#000000;fill-opacity:0;stroke:#000000;stroke-width:3;stroke-miterlimit:4;stroke-opacity:1;stroke-dasharray:none"
       id="path3850-5-6"
       sodipodi:cx="-1224.2858"
       sodipodi:cy="-51.923531"
       sodipodi:rx="44.285713"
       sodipodi:ry="44.285713"
       d="m -1180.0001,-51.923531 c 0,24.458324 -19.8273,44.2857136 -44.2857,44.2857136 -24.4583,0 -44.2857,-19.8273896 -44.2857,-44.2857136 0,-24.458324 19.8274,-44.285713 44.2857,-44.285713 24.4584,0 44.2857,19.827389 44.2857,44.285713 z" />
    <path
       transform="translate(1082.4286,1048.5714)"
       sodipodi:type="arc"
       style="fill:#000000;fill-opacity:0;stroke:#000000;stroke-width:3;stroke-miterlimit:4;stroke-opacity:1;stroke-dasharray:none"
       id="path3850-54-5"
       sodipodi:cx="-1224.2858"
       sodipodi:cy="-51.923531"
       sodipodi:rx="44.285713"
       sodipodi:ry="44.285713"
       d="m -1180.0001,-51.923531 c 0,24.458324 -19.8273,44.2857136 -44.2857,44.2857136 -24.4583,0 -44.2857,-19.8273896 -44.2857,-44.2857136 0,-24.458324 19.8274,-44.285713 44.2857,-44.285713 24.4584,0 44.2857,19.827389 44.2857,44.285713 z" />
    <path
       transform="translate(1322.0001,494.28571)"
       sodipodi:type="arc"
       style="fill:#000000;fill-opacity:0;stroke:#000000;stroke-width:3;stroke-miterlimit:4;stroke-opacity:1;stroke-dasharray:none"
       id="path3850-547-9"
       sodipodi:cx="-1224.2858"
       sodipodi:cy="-51.923531"
       sodipodi:rx="44.285713"
       sodipodi:ry="44.285713"
       d="m -1180.0001,-51.923531 c 0,24.458324 -19.8273,44.2857136 -44.2857,44.2857136 -24.4583,0 -44.2857,-19.8273896 -44.2857,-44.2857136 0,-24.458324 19.8274,-44.285713 44.2857,-44.285713 24.4584,0 44.2857,19.827389 44.2857,44.285713 z" />
    <path
       transform="translate(1344.8572,1048.5714)"
       sodipodi:type="arc"
       style="fill:#000000;fill-opacity:0;stroke:#000000;stroke-width:3;stroke-miterlimit:4;stroke-opacity:1;stroke-dasharray:none"
       id="path3850-7-49"
       sodipodi:cx="-1224.2858"
       sodipodi:cy="-51.923531"
       sodipodi:rx="44.285713"
       sodipodi:ry="44.285713"
       d="m -1180.0001,-51.923531 c 0,24.458324 -19.8273,44.2857136 -44.2857,44.2857136 -24.4583,0 -44.2857,-19.8273896 -44.2857,-44.2857136 0,-24.458324 19.8274,-44.285713 44.2857,-44.285713 24.4584,0 44.2857,19.827389 44.2857,44.285713 z" />
    <path
       transform="translate(1555,-32.57144)"
       sodipodi:type="arc"
       style="fill:#000000;fill-opacity:0;stroke:#000000;stroke-width:3;stroke-miterlimit:4;stroke-opacity:1;stroke-dasharray:none"
       id="path3850-6-1-7"
       sodipodi:cx="-1224.2858"
       sodipodi:cy="-51.923531"
       sodipodi:rx="44.285713"
       sodipodi:ry="44.285713"
       d="m -1180.0001,-51.923531 c 0,24.458324 -19.8273,44.2857136 -44.2857,44.2857136 -24.4583,0 -44.2857,-19.8273896 -44.2857,-44.2857136 0,-24.458324 19.8274,-44.285713 44.2857,-44.285713 24.4584,0 44.2857,19.827389 44.2857,44.285713 z" />
    <path
       transform="translate(1540.0001,494.28571)"
       sodipodi:type="arc"
       style="fill:#000000;fill-opacity:0;stroke:#000000;stroke-width:3;stroke-miterlimit:4;stroke-opacity:1;stroke-dasharray:none"
       id="path3850-547-7-3"
       sodipodi:cx="-1224.2858"
       sodipodi:cy="-51.923531"
       sodipodi:rx="44.285713"
       sodipodi:ry="44.285713"
       d="m -1180.0001,-51.923531 c 0,24.458324 -19.8273,44.2857136 -44.2857,44.2857136 -24.4583,0 -44.2857,-19.8273896 -44.2857,-44.2857136 0,-24.458324 19.8274,-44.285713 44.2857,-44.285713 24.4584,0 44.2857,19.827389 44.2857,44.285713 z" />
    <path
       transform="translate(1562.8572,1048.5714)"
       sodipodi:type="arc"
       style="fill:#000000;fill-opacity:0;stroke:#000000;stroke-width:3;stroke-miterlimit:4;stroke-opacity:1;stroke-dasharray:none"
       id="path3850-7-4-6"
       sodipodi:cx="-1224.2858"
       sodipodi:cy="-51.923531"
       sodipodi:rx="44.285713"
       sodipodi:ry="44.285713"
       d="m -1180.0001,-51.923531 c 0,24.458324 -19.8273,44.2857136 -44.2857,44.2857136 -24.4583,0 -44.2857,-19.8273896 -44.2857,-44.2857136 0,-24.458324 19.8274,-44.285713 44.2857,-44.285713 24.4584,0 44.2857,19.827389 44.2857,44.285713 z" />
    <path
       transform="translate(1776.1428,-31.42854)"
       sodipodi:type="arc"
       style="fill:#000000;fill-opacity:0;stroke:#000000;stroke-width:3;stroke-miterlimit:4;stroke-opacity:1;stroke-dasharray:none"
       id="path3850-6-7-7"
       sodipodi:cx="-1224.2858"
       sodipodi:cy="-51.923531"
       sodipodi:rx="44.285713"
       sodipodi:ry="44.285713"
       d="m -1180.0001,-51.923531 c 0,24.458324 -19.8273,44.2857136 -44.2857,44.2857136 -24.4583,0 -44.2857,-19.8273896 -44.2857,-44.2857136 0,-24.458324 19.8274,-44.285713 44.2857,-44.285713 24.4584,0 44.2857,19.827389 44.2857,44.285713 z" />
    <path
       transform="translate(1761.1429,495.42856)"
       sodipodi:type="arc"
       style="fill:#000000;fill-opacity:0;stroke:#000000;stroke-width:3;stroke-miterlimit:4;stroke-opacity:1;stroke-dasharray:none"
       id="path3850-547-3-6"
       sodipodi:cx="-1224.2858"
       sodipodi:cy="-51.923531"
       sodipodi:rx="44.285713"
       sodipodi:ry="44.285713"
       d="m -1180.0001,-51.923531 c 0,24.458324 -19.8273,44.2857136 -44.2857,44.2857136 -24.4583,0 -44.2857,-19.8273896 -44.2857,-44.2857136 0,-24.458324 19.8274,-44.285713 44.2857,-44.285713 24.4584,0 44.2857,19.827389 44.2857,44.285713 z" />
    <path
       transform="translate(1784,1049.7143)"
       sodipodi:type="arc"
       style="fill:#000000;fill-opacity:0;stroke:#000000;stroke-width:3;stroke-miterlimit:4;stroke-opacity:1;stroke-dasharray:none"
       id="path3850-7-1-2"
       sodipodi:cx="-1224.2858"
       sodipodi:cy="-51.923531"
       sodipodi:rx="44.285713"
       sodipodi:ry="44.285713"
       d="m -1180.0001,-51.923531 c 0,24.458324 -19.8273,44.2857136 -44.2857,44.2857136 -24.4583,0 -44.2857,-19.8273896 -44.2857,-44.2857136 0,-24.458324 19.8274,-44.285713 44.2857,-44.285713 24.4584,0 44.2857,19.827389 44.2857,44.285713 z" />
    <path
       transform="translate(1990.8572,368.64282)"
       sodipodi:type="arc"
       style="fill:#000000;fill-opacity:0;stroke:#000000;stroke-width:3;stroke-miterlimit:4;stroke-opacity:1;stroke-dasharray:none"
       id="path3850-62-0-3"
       sodipodi:cx="-1224.2858"
       sodipodi:cy="-51.923531"
       sodipodi:rx="44.285713"
       sodipodi:ry="44.285713"
       d="m -1180.0001,-51.923531 c 0,24.458324 -19.8273,44.2857136 -44.2857,44.2857136 -24.4583,0 -44.2857,-19.8273896 -44.2857,-44.2857136 0,-24.458324 19.8274,-44.285713 44.2857,-44.285713 24.4584,0 44.2857,19.827389 44.2857,44.285713 z" />
    <path
       transform="translate(1082.4286,368.64282)"
       sodipodi:type="arc"
       style="fill:#000000;fill-opacity:0;stroke:#000000;stroke-width:3;stroke-miterlimit:4;stroke-opacity:1;stroke-dasharray:none"
       id="path3850-8-2-9"
       sodipodi:cx="-1224.2858"
       sodipodi:cy="-51.923531"
       sodipodi:rx="44.285713"
       sodipodi:ry="44.285713"
       d="m -1180.0001,-51.923531 c 0,24.458324 -19.8273,44.2857136 -44.2857,44.2857136 -24.4583,0 -44.2857,-19.8273896 -44.2857,-44.2857136 0,-24.458324 19.8274,-44.285713 44.2857,-44.285713 24.4584,0 44.2857,19.827389 44.2857,44.285713 z" />
    <path
       sodipodi:type="arc"
       style="fill:#000000;fill-opacity:0;stroke:#000000;stroke-width:3;stroke-miterlimit:4;stroke-opacity:1;stroke-dasharray:none"
       id="path3850-65"
       sodipodi:cx="-1224.2858"
       sodipodi:cy="-51.923531"
       sodipodi:rx="44.285713"
       sodipodi:ry="44.285713"
       d="m -1180.0001,-51.923531 c 0,24.458324 -19.8273,44.2857136 -44.2857,44.2857136 -24.4583,0 -44.2857,-19.8273896 -44.2857,-44.2857136 0,-24.458324 19.8274,-44.285713 44.2857,-44.285713 24.4584,0 44.2857,19.827389 44.2857,44.285713 z"
       transform="translate(2493.4286,-32.57142)" />
    <path
       transform="translate(2748,-32.57142)"
       sodipodi:type="arc"
       style="fill:#000000;fill-opacity:0;stroke:#000000;stroke-width:3;stroke-miterlimit:4;stroke-opacity:1;stroke-dasharray:none"
       id="path3850-6-4"
       sodipodi:cx="-1224.2858"
       sodipodi:cy="-51.923531"
       sodipodi:rx="44.285713"
       sodipodi:ry="44.285713"
       d="m -1180.0001,-51.923531 c 0,24.458324 -19.8273,44.2857136 -44.2857,44.2857136 -24.4583,0 -44.2857,-19.8273896 -44.2857,-44.2857136 0,-24.458324 19.8274,-44.285713 44.2857,-44.285713 24.4584,0 44.2857,19.827389 44.2857,44.285713 z" />
    <path
       transform="translate(3401.8572,-32.57142)"
       sodipodi:type="arc"
       style="fill:#000000;fill-opacity:0;stroke:#000000;stroke-width:3;stroke-miterlimit:4;stroke-opacity:1;stroke-dasharray:none"
       id="path3850-0-77"
       sodipodi:cx="-1224.2858"
       sodipodi:cy="-51.923531"
       sodipodi:rx="44.285713"
       sodipodi:ry="44.285713"
       d="m -1180.0001,-51.923531 c 0,24.458324 -19.8273,44.2857136 -44.2857,44.2857136 -24.4583,0 -44.2857,-19.8273896 -44.2857,-44.2857136 0,-24.458324 19.8274,-44.285713 44.2857,-44.285713 24.4584,0 44.2857,19.827389 44.2857,44.285713 z" />
    <path
       transform="translate(3401.8572,174.85711)"
       sodipodi:type="arc"
       style="fill:#000000;fill-opacity:0;stroke:#000000;stroke-width:3;stroke-miterlimit:4;stroke-opacity:1;stroke-dasharray:none"
       id="path3850-62-08"
       sodipodi:cx="-1224.2858"
       sodipodi:cy="-51.923531"
       sodipodi:rx="44.285713"
       sodipodi:ry="44.285713"
       d="m -1180.0001,-51.923531 c 0,24.458324 -19.8273,44.2857136 -44.2857,44.2857136 -24.4583,0 -44.2857,-19.8273896 -44.2857,-44.2857136 0,-24.458324 19.8274,-44.285713 44.2857,-44.285713 24.4584,0 44.2857,19.827389 44.2857,44.285713 z" />
    <path
       transform="translate(3401.8572,602.28571)"
       sodipodi:type="arc"
       style="fill:#000000;fill-opacity:0;stroke:#000000;stroke-width:3;stroke-miterlimit:4;stroke-opacity:1;stroke-dasharray:none"
       id="path3850-2-9"
       sodipodi:cx="-1224.2858"
       sodipodi:cy="-51.923531"
       sodipodi:rx="44.285713"
       sodipodi:ry="44.285713"
       d="m -1180.0001,-51.923531 c 0,24.458324 -19.8273,44.2857136 -44.2857,44.2857136 -24.4583,0 -44.2857,-19.8273896 -44.2857,-44.2857136 0,-24.458324 19.8274,-44.285713 44.2857,-44.285713 24.4584,0 44.2857,19.827389 44.2857,44.285713 z" />
    <path
       transform="translate(3401.8572,821.14281)"
       sodipodi:type="arc"
       style="fill:#000000;fill-opacity:0;stroke:#000000;stroke-width:3;stroke-miterlimit:4;stroke-opacity:1;stroke-dasharray:none"
       id="path3850-9-3"
       sodipodi:cx="-1224.2858"
       sodipodi:cy="-51.923531"
       sodipodi:rx="44.285713"
       sodipodi:ry="44.285713"
       d="m -1180.0001,-51.923531 c 0,24.458324 -19.8273,44.2857136 -44.2857,44.2857136 -24.4583,0 -44.2857,-19.8273896 -44.2857,-44.2857136 0,-24.458324 19.8274,-44.285713 44.2857,-44.285713 24.4584,0 44.2857,19.827389 44.2857,44.285713 z" />
    <path
       transform="translate(3401.8572,1048.5714)"
       sodipodi:type="arc"
       style="fill:#000000;fill-opacity:0;stroke:#000000;stroke-width:3;stroke-miterlimit:4;stroke-opacity:1;stroke-dasharray:none"
       id="path3850-4-57"
       sodipodi:cx="-1224.2858"
       sodipodi:cy="-51.923531"
       sodipodi:rx="44.285713"
       sodipodi:ry="44.285713"
       d="m -1180.0001,-51.923531 c 0,24.458324 -19.8273,44.2857136 -44.2857,44.2857136 -24.4583,0 -44.2857,-19.8273896 -44.2857,-44.2857136 0,-24.458324 19.8274,-44.285713 44.2857,-44.285713 24.4584,0 44.2857,19.827389 44.2857,44.285713 z" />
    <path
       transform="translate(2493.4286,602.28571)"
       sodipodi:type="arc"
       style="fill:#000000;fill-opacity:0;stroke:#000000;stroke-width:3;stroke-miterlimit:4;stroke-opacity:1;stroke-dasharray:none"
       id="path3850-90-2"
       sodipodi:cx="-1224.2858"
       sodipodi:cy="-51.923531"
       sodipodi:rx="44.285713"
       sodipodi:ry="44.285713"
       d="m -1180.0001,-51.923531 c 0,24.458324 -19.8273,44.2857136 -44.2857,44.2857136 -24.4583,0 -44.2857,-19.8273896 -44.2857,-44.2857136 0,-24.458324 19.8274,-44.285713 44.2857,-44.285713 24.4584,0 44.2857,19.827389 44.2857,44.285713 z" />
    <path
       transform="translate(2493.4286,174.85711)"
       sodipodi:type="arc"
       style="fill:#000000;fill-opacity:0;stroke:#000000;stroke-width:3;stroke-miterlimit:4;stroke-opacity:1;stroke-dasharray:none"
       id="path3850-8-6"
       sodipodi:cx="-1224.2858"
       sodipodi:cy="-51.923531"
       sodipodi:rx="44.285713"
       sodipodi:ry="44.285713"
       d="m -1180.0001,-51.923531 c 0,24.458324 -19.8273,44.2857136 -44.2857,44.2857136 -24.4583,0 -44.2857,-19.8273896 -44.2857,-44.2857136 0,-24.458324 19.8274,-44.285713 44.2857,-44.285713 24.4584,0 44.2857,19.827389 44.2857,44.285713 z" />
    <path
       transform="translate(2493.4286,818.28571)"
       sodipodi:type="arc"
       style="fill:#000000;fill-opacity:0;stroke:#000000;stroke-width:3;stroke-miterlimit:4;stroke-opacity:1;stroke-dasharray:none"
       id="path3850-5-68"
       sodipodi:cx="-1224.2858"
       sodipodi:cy="-51.923531"
       sodipodi:rx="44.285713"
       sodipodi:ry="44.285713"
       d="m -1180.0001,-51.923531 c 0,24.458324 -19.8273,44.2857136 -44.2857,44.2857136 -24.4583,0 -44.2857,-19.8273896 -44.2857,-44.2857136 0,-24.458324 19.8274,-44.285713 44.2857,-44.285713 24.4584,0 44.2857,19.827389 44.2857,44.285713 z" />
    <path
       transform="translate(2493.4286,1048.5714)"
       sodipodi:type="arc"
       style="fill:#000000;fill-opacity:0;stroke:#000000;stroke-width:3;stroke-miterlimit:4;stroke-opacity:1;stroke-dasharray:none"
       id="path3850-54-1"
       sodipodi:cx="-1224.2858"
       sodipodi:cy="-51.923531"
       sodipodi:rx="44.285713"
       sodipodi:ry="44.285713"
       d="m -1180.0001,-51.923531 c 0,24.458324 -19.8273,44.2857136 -44.2857,44.2857136 -24.4583,0 -44.2857,-19.8273896 -44.2857,-44.2857136 0,-24.458324 19.8274,-44.285713 44.2857,-44.285713 24.4584,0 44.2857,19.827389 44.2857,44.285713 z" />
    <path
       transform="translate(2733.0001,494.28571)"
       sodipodi:type="arc"
       style="fill:#000000;fill-opacity:0;stroke:#000000;stroke-width:3;stroke-miterlimit:4;stroke-opacity:1;stroke-dasharray:none"
       id="path3850-547-35"
       sodipodi:cx="-1224.2858"
       sodipodi:cy="-51.923531"
       sodipodi:rx="44.285713"
       sodipodi:ry="44.285713"
       d="m -1180.0001,-51.923531 c 0,24.458324 -19.8273,44.2857136 -44.2857,44.2857136 -24.4583,0 -44.2857,-19.8273896 -44.2857,-44.2857136 0,-24.458324 19.8274,-44.285713 44.2857,-44.285713 24.4584,0 44.2857,19.827389 44.2857,44.285713 z" />
    <path
       transform="translate(2755.8572,1048.5714)"
       sodipodi:type="arc"
       style="fill:#000000;fill-opacity:0;stroke:#000000;stroke-width:3;stroke-miterlimit:4;stroke-opacity:1;stroke-dasharray:none"
       id="path3850-7-9"
       sodipodi:cx="-1224.2858"
       sodipodi:cy="-51.923531"
       sodipodi:rx="44.285713"
       sodipodi:ry="44.285713"
       d="m -1180.0001,-51.923531 c 0,24.458324 -19.8273,44.2857136 -44.2857,44.2857136 -24.4583,0 -44.2857,-19.8273896 -44.2857,-44.2857136 0,-24.458324 19.8274,-44.285713 44.2857,-44.285713 24.4584,0 44.2857,19.827389 44.2857,44.285713 z" />
    <path
       transform="translate(2966,-32.57141)"
       sodipodi:type="arc"
       style="fill:#000000;fill-opacity:0;stroke:#000000;stroke-width:3;stroke-miterlimit:4;stroke-opacity:1;stroke-dasharray:none"
       id="path3850-6-1-9"
       sodipodi:cx="-1224.2858"
       sodipodi:cy="-51.923531"
       sodipodi:rx="44.285713"
       sodipodi:ry="44.285713"
       d="m -1180.0001,-51.923531 c 0,24.458324 -19.8273,44.2857136 -44.2857,44.2857136 -24.4583,0 -44.2857,-19.8273896 -44.2857,-44.2857136 0,-24.458324 19.8274,-44.285713 44.2857,-44.285713 24.4584,0 44.2857,19.827389 44.2857,44.285713 z" />
    <path
       transform="translate(2951.0001,494.28571)"
       sodipodi:type="arc"
       style="fill:#000000;fill-opacity:0;stroke:#000000;stroke-width:3;stroke-miterlimit:4;stroke-opacity:1;stroke-dasharray:none"
       id="path3850-547-7-5"
       sodipodi:cx="-1224.2858"
       sodipodi:cy="-51.923531"
       sodipodi:rx="44.285713"
       sodipodi:ry="44.285713"
       d="m -1180.0001,-51.923531 c 0,24.458324 -19.8273,44.2857136 -44.2857,44.2857136 -24.4583,0 -44.2857,-19.8273896 -44.2857,-44.2857136 0,-24.458324 19.8274,-44.285713 44.2857,-44.285713 24.4584,0 44.2857,19.827389 44.2857,44.285713 z" />
    <path
       transform="translate(2973.8572,1048.5714)"
       sodipodi:type="arc"
       style="fill:#000000;fill-opacity:0;stroke:#000000;stroke-width:3;stroke-miterlimit:4;stroke-opacity:1;stroke-dasharray:none"
       id="path3850-7-4-5"
       sodipodi:cx="-1224.2858"
       sodipodi:cy="-51.923531"
       sodipodi:rx="44.285713"
       sodipodi:ry="44.285713"
       d="m -1180.0001,-51.923531 c 0,24.458324 -19.8273,44.2857136 -44.2857,44.2857136 -24.4583,0 -44.2857,-19.8273896 -44.2857,-44.2857136 0,-24.458324 19.8274,-44.285713 44.2857,-44.285713 24.4584,0 44.2857,19.827389 44.2857,44.285713 z" />
    <path
       transform="translate(3187.1428,-31.42857)"
       sodipodi:type="arc"
       style="fill:#000000;fill-opacity:0;stroke:#000000;stroke-width:3;stroke-miterlimit:4;stroke-opacity:1;stroke-dasharray:none"
       id="path3850-6-7-8"
       sodipodi:cx="-1224.2858"
       sodipodi:cy="-51.923531"
       sodipodi:rx="44.285713"
       sodipodi:ry="44.285713"
       d="m -1180.0001,-51.923531 c 0,24.458324 -19.8273,44.2857136 -44.2857,44.2857136 -24.4583,0 -44.2857,-19.8273896 -44.2857,-44.2857136 0,-24.458324 19.8274,-44.285713 44.2857,-44.285713 24.4584,0 44.2857,19.827389 44.2857,44.285713 z" />
    <path
       transform="translate(3172.1429,495.42856)"
       sodipodi:type="arc"
       style="fill:#000000;fill-opacity:0;stroke:#000000;stroke-width:3;stroke-miterlimit:4;stroke-opacity:1;stroke-dasharray:none"
       id="path3850-547-3-2"
       sodipodi:cx="-1224.2858"
       sodipodi:cy="-51.923531"
       sodipodi:rx="44.285713"
       sodipodi:ry="44.285713"
       d="m -1180.0001,-51.923531 c 0,24.458324 -19.8273,44.2857136 -44.2857,44.2857136 -24.4583,0 -44.2857,-19.8273896 -44.2857,-44.2857136 0,-24.458324 19.8274,-44.285713 44.2857,-44.285713 24.4584,0 44.2857,19.827389 44.2857,44.285713 z" />
    <path
       transform="translate(3195,1049.7143)"
       sodipodi:type="arc"
       style="fill:#000000;fill-opacity:0;stroke:#000000;stroke-width:3;stroke-miterlimit:4;stroke-opacity:1;stroke-dasharray:none"
       id="path3850-7-1-8"
       sodipodi:cx="-1224.2858"
       sodipodi:cy="-51.923531"
       sodipodi:rx="44.285713"
       sodipodi:ry="44.285713"
       d="m -1180.0001,-51.923531 c 0,24.458324 -19.8273,44.2857136 -44.2857,44.2857136 -24.4583,0 -44.2857,-19.8273896 -44.2857,-44.2857136 0,-24.458324 19.8274,-44.285713 44.2857,-44.285713 24.4584,0 44.2857,19.827389 44.2857,44.285713 z" />
    <path
       transform="translate(3401.8572,368.64282)"
       sodipodi:type="arc"
       style="fill:#000000;fill-opacity:0;stroke:#000000;stroke-width:3;stroke-miterlimit:4;stroke-opacity:1;stroke-dasharray:none"
       id="path3850-62-0-6"
       sodipodi:cx="-1224.2858"
       sodipodi:cy="-51.923531"
       sodipodi:rx="44.285713"
       sodipodi:ry="44.285713"
       d="m -1180.0001,-51.923531 c 0,24.458324 -19.8273,44.2857136 -44.2857,44.2857136 -24.4583,0 -44.2857,-19.8273896 -44.2857,-44.2857136 0,-24.458324 19.8274,-44.285713 44.2857,-44.285713 24.4584,0 44.2857,19.827389 44.2857,44.285713 z" />
    <path
       transform="translate(2493.4286,368.64282)"
       sodipodi:type="arc"
       style="fill:#000000;fill-opacity:0;stroke:#000000;stroke-width:3;stroke-miterlimit:4;stroke-opacity:1;stroke-dasharray:none"
       id="path3850-8-2-1"
       sodipodi:cx="-1224.2858"
       sodipodi:cy="-51.923531"
       sodipodi:rx="44.285713"
       sodipodi:ry="44.285713"
       d="m -1180.0001,-51.923531 c 0,24.458324 -19.8273,44.2857136 -44.2857,44.2857136 -24.4583,0 -44.2857,-19.8273896 -44.2857,-44.2857136 0,-24.458324 19.8274,-44.285713 44.2857,-44.285713 24.4584,0 44.2857,19.827389 44.2857,44.285713 z" />
    <path
       sodipodi:type="arc"
       style="fill:#000000;fill-opacity:0;stroke:#000000;stroke-width:3;stroke-miterlimit:4;stroke-opacity:1;stroke-dasharray:none"
       id="path3850-07-4"
       sodipodi:cx="-1224.2858"
       sodipodi:cy="-51.923531"
       sodipodi:rx="44.285713"
       sodipodi:ry="44.285713"
       d="m -1180.0001,-51.923531 c 0,24.458324 -19.8273,44.2857136 -44.2857,44.2857136 -24.4583,0 -44.2857,-19.8273896 -44.2857,-44.2857136 0,-24.458324 19.8274,-44.285713 44.2857,-44.285713 24.4584,0 44.2857,19.827389 44.2857,44.285713 z"
       transform="translate(3619.4286,-32.57143)" />
    <path
       transform="translate(3874,-32.57143)"
       sodipodi:type="arc"
       style="fill:#000000;fill-opacity:0;stroke:#000000;stroke-width:3;stroke-miterlimit:4;stroke-opacity:1;stroke-dasharray:none"
       id="path3850-6-6-8"
       sodipodi:cx="-1224.2858"
       sodipodi:cy="-51.923531"
       sodipodi:rx="44.285713"
       sodipodi:ry="44.285713"
       d="m -1180.0001,-51.923531 c 0,24.458324 -19.8273,44.2857136 -44.2857,44.2857136 -24.4583,0 -44.2857,-19.8273896 -44.2857,-44.2857136 0,-24.458324 19.8274,-44.285713 44.2857,-44.285713 24.4584,0 44.2857,19.827389 44.2857,44.285713 z" />
    <path
       transform="translate(4527.8572,-32.57143)"
       sodipodi:type="arc"
       style="fill:#000000;fill-opacity:0;stroke:#000000;stroke-width:3;stroke-miterlimit:4;stroke-opacity:1;stroke-dasharray:none"
       id="path3850-0-7-6"
       sodipodi:cx="-1224.2858"
       sodipodi:cy="-51.923531"
       sodipodi:rx="44.285713"
       sodipodi:ry="44.285713"
       d="m -1180.0001,-51.923531 c 0,24.458324 -19.8273,44.2857136 -44.2857,44.2857136 -24.4583,0 -44.2857,-19.8273896 -44.2857,-44.2857136 0,-24.458324 19.8274,-44.285713 44.2857,-44.285713 24.4584,0 44.2857,19.827389 44.2857,44.285713 z" />
    <path
       transform="translate(4527.8572,174.85711)"
       sodipodi:type="arc"
       style="fill:#000000;fill-opacity:0;stroke:#000000;stroke-width:3;stroke-miterlimit:4;stroke-opacity:1;stroke-dasharray:none"
       id="path3850-62-1-4"
       sodipodi:cx="-1224.2858"
       sodipodi:cy="-51.923531"
       sodipodi:rx="44.285713"
       sodipodi:ry="44.285713"
       d="m -1180.0001,-51.923531 c 0,24.458324 -19.8273,44.2857136 -44.2857,44.2857136 -24.4583,0 -44.2857,-19.8273896 -44.2857,-44.2857136 0,-24.458324 19.8274,-44.285713 44.2857,-44.285713 24.4584,0 44.2857,19.827389 44.2857,44.285713 z" />
    <path
       transform="translate(4527.8572,602.28571)"
       sodipodi:type="arc"
       style="fill:#000000;fill-opacity:0;stroke:#000000;stroke-width:3;stroke-miterlimit:4;stroke-opacity:1;stroke-dasharray:none"
       id="path3850-2-8-6"
       sodipodi:cx="-1224.2858"
       sodipodi:cy="-51.923531"
       sodipodi:rx="44.285713"
       sodipodi:ry="44.285713"
       d="m -1180.0001,-51.923531 c 0,24.458324 -19.8273,44.2857136 -44.2857,44.2857136 -24.4583,0 -44.2857,-19.8273896 -44.2857,-44.2857136 0,-24.458324 19.8274,-44.285713 44.2857,-44.285713 24.4584,0 44.2857,19.827389 44.2857,44.285713 z" />
    <path
       transform="translate(4527.8572,821.14281)"
       sodipodi:type="arc"
       style="fill:#000000;fill-opacity:0;stroke:#000000;stroke-width:3;stroke-miterlimit:4;stroke-opacity:1;stroke-dasharray:none"
       id="path3850-9-6-3"
       sodipodi:cx="-1224.2858"
       sodipodi:cy="-51.923531"
       sodipodi:rx="44.285713"
       sodipodi:ry="44.285713"
       d="m -1180.0001,-51.923531 c 0,24.458324 -19.8273,44.2857136 -44.2857,44.2857136 -24.4583,0 -44.2857,-19.8273896 -44.2857,-44.2857136 0,-24.458324 19.8274,-44.285713 44.2857,-44.285713 24.4584,0 44.2857,19.827389 44.2857,44.285713 z" />
    <path
       transform="translate(4527.8572,1048.5714)"
       sodipodi:type="arc"
       style="fill:#000000;fill-opacity:0;stroke:#000000;stroke-width:3;stroke-miterlimit:4;stroke-opacity:1;stroke-dasharray:none"
       id="path3850-4-5-0"
       sodipodi:cx="-1224.2858"
       sodipodi:cy="-51.923531"
       sodipodi:rx="44.285713"
       sodipodi:ry="44.285713"
       d="m -1180.0001,-51.923531 c 0,24.458324 -19.8273,44.2857136 -44.2857,44.2857136 -24.4583,0 -44.2857,-19.8273896 -44.2857,-44.2857136 0,-24.458324 19.8274,-44.285713 44.2857,-44.285713 24.4584,0 44.2857,19.827389 44.2857,44.285713 z" />
    <path
       transform="translate(3619.4286,602.28571)"
       sodipodi:type="arc"
       style="fill:#000000;fill-opacity:0;stroke:#000000;stroke-width:3;stroke-miterlimit:4;stroke-opacity:1;stroke-dasharray:none"
       id="path3850-90-7-4"
       sodipodi:cx="-1224.2858"
       sodipodi:cy="-51.923531"
       sodipodi:rx="44.285713"
       sodipodi:ry="44.285713"
       d="m -1180.0001,-51.923531 c 0,24.458324 -19.8273,44.2857136 -44.2857,44.2857136 -24.4583,0 -44.2857,-19.8273896 -44.2857,-44.2857136 0,-24.458324 19.8274,-44.285713 44.2857,-44.285713 24.4584,0 44.2857,19.827389 44.2857,44.285713 z" />
    <path
       transform="translate(3619.4286,174.85711)"
       sodipodi:type="arc"
       style="fill:#000000;fill-opacity:0;stroke:#000000;stroke-width:3;stroke-miterlimit:4;stroke-opacity:1;stroke-dasharray:none"
       id="path3850-8-5-1"
       sodipodi:cx="-1224.2858"
       sodipodi:cy="-51.923531"
       sodipodi:rx="44.285713"
       sodipodi:ry="44.285713"
       d="m -1180.0001,-51.923531 c 0,24.458324 -19.8273,44.2857136 -44.2857,44.2857136 -24.4583,0 -44.2857,-19.8273896 -44.2857,-44.2857136 0,-24.458324 19.8274,-44.285713 44.2857,-44.285713 24.4584,0 44.2857,19.827389 44.2857,44.285713 z" />
    <path
       transform="translate(3619.4286,818.28571)"
       sodipodi:type="arc"
       style="fill:#000000;fill-opacity:0;stroke:#000000;stroke-width:3;stroke-miterlimit:4;stroke-opacity:1;stroke-dasharray:none"
       id="path3850-5-6-3"
       sodipodi:cx="-1224.2858"
       sodipodi:cy="-51.923531"
       sodipodi:rx="44.285713"
       sodipodi:ry="44.285713"
       d="m -1180.0001,-51.923531 c 0,24.458324 -19.8273,44.2857136 -44.2857,44.2857136 -24.4583,0 -44.2857,-19.8273896 -44.2857,-44.2857136 0,-24.458324 19.8274,-44.285713 44.2857,-44.285713 24.4584,0 44.2857,19.827389 44.2857,44.285713 z" />
    <path
       transform="translate(3619.4286,1048.5714)"
       sodipodi:type="arc"
       style="fill:#000000;fill-opacity:0;stroke:#000000;stroke-width:3;stroke-miterlimit:4;stroke-opacity:1;stroke-dasharray:none"
       id="path3850-54-5-2"
       sodipodi:cx="-1224.2858"
       sodipodi:cy="-51.923531"
       sodipodi:rx="44.285713"
       sodipodi:ry="44.285713"
       d="m -1180.0001,-51.923531 c 0,24.458324 -19.8273,44.2857136 -44.2857,44.2857136 -24.4583,0 -44.2857,-19.8273896 -44.2857,-44.2857136 0,-24.458324 19.8274,-44.285713 44.2857,-44.285713 24.4584,0 44.2857,19.827389 44.2857,44.285713 z" />
    <path
       transform="translate(3859.0001,494.28571)"
       sodipodi:type="arc"
       style="fill:#000000;fill-opacity:0;stroke:#000000;stroke-width:3;stroke-miterlimit:4;stroke-opacity:1;stroke-dasharray:none"
       id="path3850-547-9-0"
       sodipodi:cx="-1224.2858"
       sodipodi:cy="-51.923531"
       sodipodi:rx="44.285713"
       sodipodi:ry="44.285713"
       d="m -1180.0001,-51.923531 c 0,24.458324 -19.8273,44.2857136 -44.2857,44.2857136 -24.4583,0 -44.2857,-19.8273896 -44.2857,-44.2857136 0,-24.458324 19.8274,-44.285713 44.2857,-44.285713 24.4584,0 44.2857,19.827389 44.2857,44.285713 z" />
    <path
       transform="translate(3881.8572,1048.5714)"
       sodipodi:type="arc"
       style="fill:#000000;fill-opacity:0;stroke:#000000;stroke-width:3;stroke-miterlimit:4;stroke-opacity:1;stroke-dasharray:none"
       id="path3850-7-49-6"
       sodipodi:cx="-1224.2858"
       sodipodi:cy="-51.923531"
       sodipodi:rx="44.285713"
       sodipodi:ry="44.285713"
       d="m -1180.0001,-51.923531 c 0,24.458324 -19.8273,44.2857136 -44.2857,44.2857136 -24.4583,0 -44.2857,-19.8273896 -44.2857,-44.2857136 0,-24.458324 19.8274,-44.285713 44.2857,-44.285713 24.4584,0 44.2857,19.827389 44.2857,44.285713 z" />
    <path
       transform="translate(4092,-32.57143)"
       sodipodi:type="arc"
       style="fill:#000000;fill-opacity:0;stroke:#000000;stroke-width:3;stroke-miterlimit:4;stroke-opacity:1;stroke-dasharray:none"
       id="path3850-6-1-7-7"
       sodipodi:cx="-1224.2858"
       sodipodi:cy="-51.923531"
       sodipodi:rx="44.285713"
       sodipodi:ry="44.285713"
       d="m -1180.0001,-51.923531 c 0,24.458324 -19.8273,44.2857136 -44.2857,44.2857136 -24.4583,0 -44.2857,-19.8273896 -44.2857,-44.2857136 0,-24.458324 19.8274,-44.285713 44.2857,-44.285713 24.4584,0 44.2857,19.827389 44.2857,44.285713 z" />
    <path
       transform="translate(4077.0001,494.28571)"
       sodipodi:type="arc"
       style="fill:#000000;fill-opacity:0;stroke:#000000;stroke-width:3;stroke-miterlimit:4;stroke-opacity:1;stroke-dasharray:none"
       id="path3850-547-7-3-0"
       sodipodi:cx="-1224.2858"
       sodipodi:cy="-51.923531"
       sodipodi:rx="44.285713"
       sodipodi:ry="44.285713"
       d="m -1180.0001,-51.923531 c 0,24.458324 -19.8273,44.2857136 -44.2857,44.2857136 -24.4583,0 -44.2857,-19.8273896 -44.2857,-44.2857136 0,-24.458324 19.8274,-44.285713 44.2857,-44.285713 24.4584,0 44.2857,19.827389 44.2857,44.285713 z" />
    <path
       transform="translate(4099.8572,1048.5714)"
       sodipodi:type="arc"
       style="fill:#000000;fill-opacity:0;stroke:#000000;stroke-width:3;stroke-miterlimit:4;stroke-opacity:1;stroke-dasharray:none"
       id="path3850-7-4-6-8"
       sodipodi:cx="-1224.2858"
       sodipodi:cy="-51.923531"
       sodipodi:rx="44.285713"
       sodipodi:ry="44.285713"
       d="m -1180.0001,-51.923531 c 0,24.458324 -19.8273,44.2857136 -44.2857,44.2857136 -24.4583,0 -44.2857,-19.8273896 -44.2857,-44.2857136 0,-24.458324 19.8274,-44.285713 44.2857,-44.285713 24.4584,0 44.2857,19.827389 44.2857,44.285713 z" />
    <path
       transform="translate(4313.1428,-31.42853)"
       sodipodi:type="arc"
       style="fill:#000000;fill-opacity:0;stroke:#000000;stroke-width:3;stroke-miterlimit:4;stroke-opacity:1;stroke-dasharray:none"
       id="path3850-6-7-7-3"
       sodipodi:cx="-1224.2858"
       sodipodi:cy="-51.923531"
       sodipodi:rx="44.285713"
       sodipodi:ry="44.285713"
       d="m -1180.0001,-51.923531 c 0,24.458324 -19.8273,44.2857136 -44.2857,44.2857136 -24.4583,0 -44.2857,-19.8273896 -44.2857,-44.2857136 0,-24.458324 19.8274,-44.285713 44.2857,-44.285713 24.4584,0 44.2857,19.827389 44.2857,44.285713 z" />
    <path
       transform="translate(4298.1429,495.42856)"
       sodipodi:type="arc"
       style="fill:#000000;fill-opacity:0;stroke:#000000;stroke-width:3;stroke-miterlimit:4;stroke-opacity:1;stroke-dasharray:none"
       id="path3850-547-3-6-6"
       sodipodi:cx="-1224.2858"
       sodipodi:cy="-51.923531"
       sodipodi:rx="44.285713"
       sodipodi:ry="44.285713"
       d="m -1180.0001,-51.923531 c 0,24.458324 -19.8273,44.2857136 -44.2857,44.2857136 -24.4583,0 -44.2857,-19.8273896 -44.2857,-44.2857136 0,-24.458324 19.8274,-44.285713 44.2857,-44.285713 24.4584,0 44.2857,19.827389 44.2857,44.285713 z" />
    <path
       transform="translate(4321,1049.7143)"
       sodipodi:type="arc"
       style="fill:#000000;fill-opacity:0;stroke:#000000;stroke-width:3;stroke-miterlimit:4;stroke-opacity:1;stroke-dasharray:none"
       id="path3850-7-1-2-8"
       sodipodi:cx="-1224.2858"
       sodipodi:cy="-51.923531"
       sodipodi:rx="44.285713"
       sodipodi:ry="44.285713"
       d="m -1180.0001,-51.923531 c 0,24.458324 -19.8273,44.2857136 -44.2857,44.2857136 -24.4583,0 -44.2857,-19.8273896 -44.2857,-44.2857136 0,-24.458324 19.8274,-44.285713 44.2857,-44.285713 24.4584,0 44.2857,19.827389 44.2857,44.285713 z" />
    <path
       transform="translate(4527.8572,368.64282)"
       sodipodi:type="arc"
       style="fill:#000000;fill-opacity:0;stroke:#000000;stroke-width:3;stroke-miterlimit:4;stroke-opacity:1;stroke-dasharray:none"
       id="path3850-62-0-3-7"
       sodipodi:cx="-1224.2858"
       sodipodi:cy="-51.923531"
       sodipodi:rx="44.285713"
       sodipodi:ry="44.285713"
       d="m -1180.0001,-51.923531 c 0,24.458324 -19.8273,44.2857136 -44.2857,44.2857136 -24.4583,0 -44.2857,-19.8273896 -44.2857,-44.2857136 0,-24.458324 19.8274,-44.285713 44.2857,-44.285713 24.4584,0 44.2857,19.827389 44.2857,44.285713 z" />
    <path
       transform="translate(3619.4286,368.64282)"
       sodipodi:type="arc"
       style="fill:#000000;fill-opacity:0;stroke:#000000;stroke-width:3;stroke-miterlimit:4;stroke-opacity:1;stroke-dasharray:none"
       id="path3850-8-2-9-9"
       sodipodi:cx="-1224.2858"
       sodipodi:cy="-51.923531"
       sodipodi:rx="44.285713"
       sodipodi:ry="44.285713"
       d="m -1180.0001,-51.923531 c 0,24.458324 -19.8273,44.2857136 -44.2857,44.2857136 -24.4583,0 -44.2857,-19.8273896 -44.2857,-44.2857136 0,-24.458324 19.8274,-44.285713 44.2857,-44.285713 24.4584,0 44.2857,19.827389 44.2857,44.285713 z" />
  </g>
</svg>
